<?xml version="1.0" encoding="utf-8"?>
<!-- Generator: Adobe Illustrator 19.2.1, SVG Export Plug-In . SVG Version: 6.00 Build 0)  -->
<svg version="1.1" id="Layer_1" xmlns="http://www.w3.org/2000/svg" xmlns:xlink="http://www.w3.org/1999/xlink" x="0px" y="0px"
	 viewBox="0 0 70 70" style="enable-background:new 0 0 70 70;" xml:space="preserve">
<style type="text/css">
	.st0{opacity:0.5;fill:#9F2F50;}
	.st1{opacity:0.5;fill:#9DC3E9;}
	.st2{display:none;}
	.st3{display:inline;fill:#9DC3E9;}
	.st4{fill:none;stroke:#333333;stroke-width:0.75;stroke-miterlimit:10;}
	.st5{fill:none;stroke:#333333;stroke-width:1.2;stroke-miterlimit:10;}
	.st6{fill:none;stroke:#333333;stroke-miterlimit:10;}
	.st7{fill:#FFFFFF;stroke:#333333;stroke-width:1.2;stroke-miterlimit:10;}
	.st8{fill:#FFFFFF;stroke:#333333;stroke-width:0.75;stroke-miterlimit:10;}
	.st9{fill:#333333;}
	.st10{fill:none;stroke:#333333;stroke-width:0.75;stroke-linecap:round;stroke-miterlimit:10;}
	.st11{fill:#FFFFFF;stroke:#5991CC;stroke-width:1.5;stroke-miterlimit:10;}
	.st12{fill:none;stroke:#5991CC;stroke-width:2;stroke-miterlimit:10;}
	.st13{fill:none;stroke:#5991CC;stroke-width:1.5;stroke-miterlimit:10;}
	.st14{fill:#5991CC;}
	.st15{fill:none;stroke:#5991CC;stroke-miterlimit:10;}
	.st16{fill:none;stroke:#5991CC;stroke-width:1.5;stroke-linecap:round;stroke-miterlimit:10;}
	.st17{fill:none;stroke:#5891CC;stroke-width:2;stroke-miterlimit:10;}
	.st18{fill:none;stroke:#5891CC;stroke-width:1.5;stroke-miterlimit:10;}
	.st19{fill:#5891CC;}
	.st20{fill:none;stroke:#5891CC;stroke-width:1.5;stroke-linecap:round;stroke-miterlimit:10;}
	.st21{fill:none;stroke:#333333;stroke-width:1.2;stroke-linecap:round;stroke-miterlimit:10;}
	.st22{fill:none;stroke:#333333;stroke-width:1.2;stroke-linecap:round;stroke-miterlimit:10;stroke-dasharray:2.0016,2.0016;}
	.st23{fill:none;stroke:#5791CC;stroke-width:2;stroke-miterlimit:10;}
	.st24{fill:none;stroke:#5791CC;stroke-width:1.5;stroke-miterlimit:10;}
	.st25{fill:none;stroke:#5791CC;stroke-width:2;stroke-linecap:round;stroke-miterlimit:10;}
	.st26{fill:none;stroke:#5791CC;stroke-width:2;stroke-linecap:round;stroke-miterlimit:10;stroke-dasharray:4.0032,4.0032;}
	.st27{fill:none;stroke:#5991CC;stroke-width:0.75;stroke-linejoin:round;stroke-miterlimit:10;}
	.st28{fill:none;stroke:#5991CC;stroke-width:2;stroke-linejoin:round;stroke-miterlimit:10;}
	.st29{fill:none;stroke:#333333;stroke-width:2;stroke-miterlimit:10;}
	.st30{fill:none;stroke:#333333;stroke-width:1.5;stroke-miterlimit:10;}
	.st31{fill:none;stroke:#333333;stroke-width:0.75;stroke-linejoin:round;stroke-miterlimit:10;}
	.st32{fill:none;stroke:#5991CC;stroke-width:2;stroke-linecap:round;stroke-miterlimit:10;}
	.st33{fill:none;stroke:#333333;stroke-width:1.5;stroke-linecap:round;stroke-miterlimit:10;}
	.st34{fill:none;stroke:#5891CC;stroke-width:0.75;stroke-linejoin:round;stroke-miterlimit:10;}
	.st35{fill:none;stroke:#5791CC;stroke-width:0.75;stroke-linejoin:round;stroke-miterlimit:10;}
	.st36{fill:none;stroke:#5791CC;stroke-width:1.5;stroke-linecap:round;stroke-miterlimit:10;}
	.st37{fill:none;stroke:#333333;stroke-width:2;stroke-linecap:round;stroke-miterlimit:10;}
	.st38{fill:none;stroke:#333333;stroke-width:0.75;stroke-linecap:round;stroke-linejoin:round;stroke-miterlimit:10;}
	.st39{fill:none;stroke:#5691CC;stroke-width:2;stroke-linecap:round;stroke-miterlimit:10;}
	.st40{fill:none;stroke:#5691CC;stroke-width:2;stroke-miterlimit:10;}
	.st41{fill:none;stroke:#5691CC;stroke-width:1.5;stroke-miterlimit:10;}
	.st42{fill:none;stroke:#5691CC;stroke-width:1.5;stroke-linecap:round;stroke-miterlimit:10;}
	.st43{fill:none;stroke:#5691CC;stroke-width:0.75;stroke-linecap:round;stroke-linejoin:round;stroke-miterlimit:10;}
	.st44{fill:#5691CC;}
	.st45{opacity:0.5;fill:#333333;}
	.st46{opacity:0.5;fill:#333333;stroke:#333333;stroke-miterlimit:10;}
	.st47{fill:#FFFFFF;stroke:#333333;stroke-width:1.5;stroke-miterlimit:10;}
	.st48{fill:none;stroke:#333333;stroke-width:2;stroke-linecap:round;stroke-miterlimit:10;stroke-dasharray:4.0032,4.0032;}
	.st49{fill:none;stroke:#333333;stroke-width:2;stroke-linejoin:round;stroke-miterlimit:10;}
	.st50{fill:none;stroke:#333333;stroke-width:1.5;stroke-linejoin:round;stroke-miterlimit:10;}
	.st51{fill:none;stroke:#5791CC;stroke-width:3;stroke-miterlimit:10;}
	.st52{fill:none;stroke:#5791CC;stroke-width:1.5;stroke-linejoin:round;stroke-miterlimit:10;}
	.st53{opacity:0.3;fill:#9F2F50;}
	.st54{fill:none;stroke:#9F2F50;stroke-width:2;stroke-miterlimit:10;}
	.st55{fill:none;stroke:#9F2F50;stroke-width:1.5;stroke-miterlimit:10;}
	.st56{fill:none;stroke:#9F2F50;stroke-width:2;stroke-linecap:round;stroke-miterlimit:10;}
	.st57{opacity:0.5;fill:#A02F50;}
	.st58{fill:none;stroke:#A02F50;stroke-width:2;stroke-miterlimit:10;}
	.st59{fill:none;stroke:#A02F50;stroke-width:1.5;stroke-miterlimit:10;}
	.st60{fill:none;stroke:#A02F50;stroke-width:0.75;stroke-linecap:round;stroke-linejoin:round;stroke-miterlimit:10;}
	.st61{fill:#A02F50;}
	.st62{fill:#9F2F50;}
</style>
<circle class="st23" cx="51.5" cy="18.6" r="16.5"/>
<circle class="st24" cx="51.5" cy="18.6" r="12.3"/>
<path class="st23" d="M3.2,66.9L3.2,66.9c-1.5-1.5-1.5-4,0-5.5L31,33.6c1.5-1.5,4-1.5,5.5,0l0,0c1.5,1.5,1.5,4,0,5.5L8.6,66.9
	C7.1,68.4,4.7,68.4,3.2,66.9z"/>
<line class="st24" x1="8.6" y1="56.8" x2="13.2" y2="61.5"/>
<line class="st23" x1="35.3" y1="32.5" x2="39" y2="28.9"/>
<line class="st23" x1="41.2" y1="31.1" x2="37.5" y2="34.7"/>
<path class="st35" d="M28.4,28.1L28.4,28.1c0-1.1-0.9-2-2-2l0,0c1.1,0,2-1.2,2-2.3h0c0,1.1,0.9,2.3,2,2.3l0,0
	C29.2,26.1,28.4,27,28.4,28.1z"/>
<path class="st35" d="M30.3,22.1L30.3,22.1c0-1.1-0.9-2-2-2l0,0c1.1,0,2-1.2,2-2.3h0c0,1.1,0.9,2.3,2,2.3l0,0
	C31.2,20.1,30.3,21,30.3,22.1z"/>
<path class="st35" d="M61.8,40.6L61.8,40.6c0-1.1-0.9-2-2-2l0,0c1.1,0,2-1.2,2-2.3h0c0,1.1,0.9,2.3,2,2.3l0,0
	C62.7,38.6,61.8,39.5,61.8,40.6z"/>
<line class="st36" x1="57.1" y1="13.2" x2="45.8" y2="23.8"/>
<line class="st36" x1="56.8" y1="24.1" x2="46.2" y2="12.9"/>
</svg>
