<?xml version="1.0" encoding="utf-8"?>
<!-- Generator: Adobe Illustrator 19.2.1, SVG Export Plug-In . SVG Version: 6.00 Build 0)  -->
<svg version="1.1" id="Layer_1" xmlns="http://www.w3.org/2000/svg" xmlns:xlink="http://www.w3.org/1999/xlink" x="0px" y="0px"
	 viewBox="0 0 70 70" style="enable-background:new 0 0 70 70;" xml:space="preserve">
<style type="text/css">
	.st0{opacity:0.5;fill:#9F2F50;}
	.st1{opacity:0.5;fill:#9DC3E9;}
	.st2{display:none;}
	.st3{display:inline;fill:#9DC3E9;}
	.st4{fill:none;stroke:#333333;stroke-width:0.75;stroke-miterlimit:10;}
	.st5{fill:none;stroke:#333333;stroke-width:1.2;stroke-miterlimit:10;}
	.st6{fill:none;stroke:#333333;stroke-miterlimit:10;}
	.st7{fill:#FFFFFF;stroke:#333333;stroke-width:1.2;stroke-miterlimit:10;}
	.st8{fill:#FFFFFF;stroke:#333333;stroke-width:0.75;stroke-miterlimit:10;}
	.st9{fill:#333333;}
	.st10{fill:none;stroke:#333333;stroke-width:0.75;stroke-linecap:round;stroke-miterlimit:10;}
	.st11{fill:#FFFFFF;stroke:#5991CC;stroke-width:1.5;stroke-miterlimit:10;}
	.st12{fill:none;stroke:#5991CC;stroke-width:2;stroke-miterlimit:10;}
	.st13{fill:none;stroke:#5991CC;stroke-width:1.5;stroke-miterlimit:10;}
	.st14{fill:#5991CC;}
	.st15{fill:none;stroke:#5991CC;stroke-miterlimit:10;}
	.st16{fill:none;stroke:#5991CC;stroke-width:1.5;stroke-linecap:round;stroke-miterlimit:10;}
	.st17{fill:none;stroke:#5891CC;stroke-width:2;stroke-miterlimit:10;}
	.st18{fill:none;stroke:#5891CC;stroke-width:1.5;stroke-miterlimit:10;}
	.st19{fill:#5891CC;}
	.st20{fill:none;stroke:#5891CC;stroke-width:1.5;stroke-linecap:round;stroke-miterlimit:10;}
	.st21{fill:none;stroke:#333333;stroke-width:1.2;stroke-linecap:round;stroke-miterlimit:10;}
	.st22{fill:none;stroke:#333333;stroke-width:1.2;stroke-linecap:round;stroke-miterlimit:10;stroke-dasharray:2.0016,2.0016;}
	.st23{fill:none;stroke:#5791CC;stroke-width:2;stroke-miterlimit:10;}
	.st24{fill:none;stroke:#5791CC;stroke-width:1.5;stroke-miterlimit:10;}
	.st25{fill:none;stroke:#5791CC;stroke-width:2;stroke-linecap:round;stroke-miterlimit:10;}
	.st26{fill:none;stroke:#5791CC;stroke-width:2;stroke-linecap:round;stroke-miterlimit:10;stroke-dasharray:4.0032,4.0032;}
	.st27{fill:none;stroke:#5991CC;stroke-width:0.75;stroke-linejoin:round;stroke-miterlimit:10;}
	.st28{fill:none;stroke:#5991CC;stroke-width:2;stroke-linejoin:round;stroke-miterlimit:10;}
	.st29{fill:none;stroke:#333333;stroke-width:2;stroke-miterlimit:10;}
	.st30{fill:none;stroke:#333333;stroke-width:1.5;stroke-miterlimit:10;}
	.st31{fill:none;stroke:#333333;stroke-width:0.75;stroke-linejoin:round;stroke-miterlimit:10;}
	.st32{fill:none;stroke:#5991CC;stroke-width:2;stroke-linecap:round;stroke-miterlimit:10;}
	.st33{fill:none;stroke:#333333;stroke-width:1.5;stroke-linecap:round;stroke-miterlimit:10;}
	.st34{fill:none;stroke:#5891CC;stroke-width:0.75;stroke-linejoin:round;stroke-miterlimit:10;}
	.st35{fill:none;stroke:#5791CC;stroke-width:0.75;stroke-linejoin:round;stroke-miterlimit:10;}
	.st36{fill:none;stroke:#5791CC;stroke-width:1.5;stroke-linecap:round;stroke-miterlimit:10;}
	.st37{fill:none;stroke:#333333;stroke-width:2;stroke-linecap:round;stroke-miterlimit:10;}
	.st38{fill:none;stroke:#333333;stroke-width:0.75;stroke-linecap:round;stroke-linejoin:round;stroke-miterlimit:10;}
	.st39{fill:none;stroke:#5691CC;stroke-width:2;stroke-linecap:round;stroke-miterlimit:10;}
	.st40{fill:none;stroke:#5691CC;stroke-width:2;stroke-miterlimit:10;}
	.st41{fill:none;stroke:#5691CC;stroke-width:1.5;stroke-miterlimit:10;}
	.st42{fill:none;stroke:#5691CC;stroke-width:1.5;stroke-linecap:round;stroke-miterlimit:10;}
	.st43{fill:none;stroke:#5691CC;stroke-width:0.75;stroke-linecap:round;stroke-linejoin:round;stroke-miterlimit:10;}
	.st44{fill:#5691CC;}
	.st45{opacity:0.5;fill:#333333;}
	.st46{opacity:0.5;fill:#333333;stroke:#333333;stroke-miterlimit:10;}
	.st47{fill:#FFFFFF;stroke:#333333;stroke-width:1.5;stroke-miterlimit:10;}
	.st48{fill:none;stroke:#333333;stroke-width:2;stroke-linecap:round;stroke-miterlimit:10;stroke-dasharray:4.0032,4.0032;}
	.st49{fill:none;stroke:#333333;stroke-width:2;stroke-linejoin:round;stroke-miterlimit:10;}
	.st50{fill:none;stroke:#333333;stroke-width:1.5;stroke-linejoin:round;stroke-miterlimit:10;}
	.st51{fill:none;stroke:#5791CC;stroke-width:3;stroke-miterlimit:10;}
	.st52{fill:none;stroke:#5791CC;stroke-width:1.5;stroke-linejoin:round;stroke-miterlimit:10;}
	.st53{opacity:0.3;fill:#9F2F50;}
	.st54{fill:none;stroke:#9F2F50;stroke-width:2;stroke-miterlimit:10;}
	.st55{fill:none;stroke:#9F2F50;stroke-width:1.5;stroke-miterlimit:10;}
	.st56{fill:none;stroke:#9F2F50;stroke-width:2;stroke-linecap:round;stroke-miterlimit:10;}
	.st57{opacity:0.5;fill:#A02F50;}
	.st58{fill:none;stroke:#A02F50;stroke-width:2;stroke-miterlimit:10;}
	.st59{fill:none;stroke:#A02F50;stroke-width:1.5;stroke-miterlimit:10;}
	.st60{fill:none;stroke:#A02F50;stroke-width:0.75;stroke-linecap:round;stroke-linejoin:round;stroke-miterlimit:10;}
	.st61{fill:#A02F50;}
	.st62{fill:#9F2F50;}
</style>
<rect x="7" y="47.7" class="st1" width="41.9" height="4.7"/>
<path class="st1" d="M55.2,31.3h6.4c0.7,0,1.3-0.6,1.3-1.3v-6.4c0-0.7-0.6-1.3-1.3-1.3l-0.8,3.6l-5.9-3.3c-0.7,0-1,0.3-1,1V30
	C53.9,30.8,54.5,31.3,55.2,31.3z"/>
<rect x="7" y="22.3" class="st1" width="41.9" height="12.6"/>
<rect x="7" y="38.8" class="st1" width="41.9" height="4.7"/>
<rect x="53.9" y="39" class="st1" width="9" height="4.4"/>
<path class="st17" d="M57.5,11h9.2c0.7,0,1.3,0.6,1.3,1.3v43.1c0,0.7-0.6,1.3-1.3,1.3H3.3c-0.7,0-1.3-0.6-1.3-1.3V12.3
	C2,11.5,2.6,11,3.3,11h48.7"/>
<line class="st18" x1="2" y1="17" x2="46.9" y2="17"/>
<path class="st18" d="M53.9,23.6V30c0,0.7,0.6,1.3,1.3,1.3h6.4c0.7,0,1.3-0.6,1.3-1.3v-6.4c0-0.7-0.6-1.3-1.3-1.3h-0.7"/>
<polyline class="st18" points="48.9,26 48.9,34.8 7,34.8 7,22.3 48.9,22.3 "/>
<path class="st18" d="M55.5,6.9l2.7,5.5l6.1,0.9c0.7,0.1,0.9,0.9,0.5,1.4L60.4,19l1,6c0.1,0.7-0.6,1.2-1.2,0.9L54.8,23l-5.4,2.8
	c-0.6,0.3-1.3-0.2-1.2-0.9l1-6l-4.4-4.3c-0.5-0.5-0.2-1.3,0.5-1.4l6.1-0.9l2.7-5.5C54.4,6.3,55.2,6.3,55.5,6.9z"/>
<ellipse transform="matrix(0.7071 -0.7071 0.7071 0.7071 -8.5298 8.0308)" class="st19" cx="5.4" cy="14.3" rx="0.8" ry="0.8"/>
<ellipse transform="matrix(0.7071 -0.7071 0.7071 0.7071 -7.646 10.1645)" class="st19" cx="8.4" cy="14.3" rx="0.8" ry="0.8"/>
<ellipse transform="matrix(0.7071 -0.7071 0.7071 0.7071 -6.7538 12.3185)" class="st19" cx="11.5" cy="14.3" rx="0.8" ry="0.8"/>
<rect x="53.9" y="39" class="st20" width="9" height="4.4"/>
<path class="st27" d="M19.7,65L19.7,65c0-1.1-0.9-2-2-2l0,0c1.1,0,2-1.2,2-2.3h0c0,1.1,0.9,2.3,2,2.3l0,0C20.5,63,19.7,63.9,19.7,65
	z"/>
<rect x="7" y="39" class="st20" width="41.9" height="4.4"/>
<rect x="7" y="47.8" class="st20" width="41.9" height="4.4"/>
<rect x="53.9" y="47.8" class="st1" width="9" height="4.4"/>
<rect x="53.9" y="47.8" class="st20" width="9" height="4.4"/>
<line class="st18" x1="62.4" y1="17" x2="68" y2="17"/>
<path class="st27" d="M14.1,68.1L14.1,68.1c0-1.1-0.9-2-2-2l0,0c1.1,0,2-1.2,2-2.3h0c0,1.1,0.9,2.3,2,2.3l0,0
	C15,66.1,14.1,67,14.1,68.1z"/>
<path class="st27" d="M51.6,63L51.6,63c0-1.1-0.9-2-2-2l0,0c1.1,0,2-1.2,2-2.3h0c0,1.1,0.9,2.3,2,2.3l0,0C52.4,61,51.6,61.9,51.6,63
	z"/>
<path class="st27" d="M12.1,5.9L12.1,5.9c0-1.1-0.9-2-2-2l0,0c1.1,0,2-1.2,2-2.3h0c0,1.1,0.9,2.3,2,2.3l0,0C13,4,12.1,4.8,12.1,5.9z
	"/>
<path class="st27" d="M22.9,7.8L22.9,7.8c0-1.1-0.9-2-2-2l0,0c1.1,0,2-1.2,2-2.3h0c0,1.1,0.9,2.3,2,2.3l0,0
	C23.7,5.8,22.9,6.7,22.9,7.8z"/>
<path class="st27" d="M48.8,8.1L48.8,8.1c0-1.1-0.9-2-2-2l0,0c1.1,0,2-1.2,2-2.3h0c0,1.1,0.9,2.3,2,2.3l0,0
	C49.6,6.2,48.8,7.1,48.8,8.1z"/>
<path class="st27" d="M53.7,4.5L53.7,4.5c0-1.1-0.9-2-2-2l0,0c1.1,0,2-1.2,2-2.3h0c0,1.1,0.9,2.3,2,2.3l0,0
	C54.5,2.5,53.7,3.4,53.7,4.5z"/>
<path class="st27" d="M60.9,6.7L60.9,6.7c0-1.1-0.9-2-2-2l0,0c1.1,0,2-1.2,2-2.3h0c0,1.1,0.9,2.3,2,2.3l0,0
	C61.8,4.7,60.9,5.6,60.9,6.7z"/>
</svg>
