<?xml version="1.0" encoding="utf-8"?>
<!-- Generator: Adobe Illustrator 19.2.1, SVG Export Plug-In . SVG Version: 6.00 Build 0)  -->
<svg version="1.1" id="Layer_1" xmlns="http://www.w3.org/2000/svg" xmlns:xlink="http://www.w3.org/1999/xlink" x="0px" y="0px"
	 viewBox="0 0 69.7 70" style="enable-background:new 0 0 69.7 70;" xml:space="preserve">
<style type="text/css">
	.st0{opacity:0.5;fill:#9F2F50;}
	.st1{opacity:0.5;fill:#9DC3E9;}
	.st2{display:none;}
	.st3{display:inline;fill:#9DC3E9;}
	.st4{fill:none;stroke:#333333;stroke-width:0.75;stroke-miterlimit:10;}
	.st5{fill:none;stroke:#333333;stroke-width:1.2;stroke-miterlimit:10;}
	.st6{fill:none;stroke:#333333;stroke-miterlimit:10;}
	.st7{fill:#FFFFFF;stroke:#333333;stroke-width:1.2;stroke-miterlimit:10;}
	.st8{fill:#FFFFFF;stroke:#333333;stroke-width:0.75;stroke-miterlimit:10;}
	.st9{fill:#333333;}
	.st10{fill:none;stroke:#333333;stroke-width:0.75;stroke-linecap:round;stroke-miterlimit:10;}
	.st11{fill:#FFFFFF;stroke:#5991CC;stroke-width:1.5;stroke-miterlimit:10;}
	.st12{fill:none;stroke:#5991CC;stroke-width:2;stroke-miterlimit:10;}
	.st13{fill:none;stroke:#5991CC;stroke-width:1.5;stroke-miterlimit:10;}
	.st14{fill:#5991CC;}
	.st15{fill:none;stroke:#5991CC;stroke-miterlimit:10;}
	.st16{fill:none;stroke:#5991CC;stroke-width:1.5;stroke-linecap:round;stroke-miterlimit:10;}
	.st17{fill:none;stroke:#5891CC;stroke-width:2;stroke-miterlimit:10;}
	.st18{fill:none;stroke:#5891CC;stroke-width:1.5;stroke-miterlimit:10;}
	.st19{fill:#5891CC;}
	.st20{fill:none;stroke:#5891CC;stroke-width:1.5;stroke-linecap:round;stroke-miterlimit:10;}
	.st21{fill:none;stroke:#333333;stroke-width:1.2;stroke-linecap:round;stroke-miterlimit:10;}
	.st22{fill:none;stroke:#333333;stroke-width:1.2;stroke-linecap:round;stroke-miterlimit:10;stroke-dasharray:2.0016,2.0016;}
	.st23{fill:none;stroke:#5791CC;stroke-width:2;stroke-miterlimit:10;}
	.st24{fill:none;stroke:#5791CC;stroke-width:1.5;stroke-miterlimit:10;}
	.st25{fill:none;stroke:#5791CC;stroke-width:2;stroke-linecap:round;stroke-miterlimit:10;}
	.st26{fill:none;stroke:#5791CC;stroke-width:2;stroke-linecap:round;stroke-miterlimit:10;stroke-dasharray:4.0032,4.0032;}
	.st27{fill:none;stroke:#5991CC;stroke-width:0.75;stroke-linejoin:round;stroke-miterlimit:10;}
	.st28{fill:none;stroke:#5991CC;stroke-width:2;stroke-linejoin:round;stroke-miterlimit:10;}
	.st29{fill:none;stroke:#333333;stroke-width:2;stroke-miterlimit:10;}
	.st30{fill:none;stroke:#333333;stroke-width:1.5;stroke-miterlimit:10;}
	.st31{fill:none;stroke:#333333;stroke-width:0.75;stroke-linejoin:round;stroke-miterlimit:10;}
	.st32{fill:none;stroke:#5991CC;stroke-width:2;stroke-linecap:round;stroke-miterlimit:10;}
	.st33{fill:none;stroke:#333333;stroke-width:1.5;stroke-linecap:round;stroke-miterlimit:10;}
	.st34{fill:none;stroke:#5891CC;stroke-width:0.75;stroke-linejoin:round;stroke-miterlimit:10;}
	.st35{fill:none;stroke:#5791CC;stroke-width:0.75;stroke-linejoin:round;stroke-miterlimit:10;}
	.st36{fill:none;stroke:#5791CC;stroke-width:1.5;stroke-linecap:round;stroke-miterlimit:10;}
	.st37{fill:none;stroke:#333333;stroke-width:2;stroke-linecap:round;stroke-miterlimit:10;}
	.st38{fill:none;stroke:#333333;stroke-width:0.75;stroke-linecap:round;stroke-linejoin:round;stroke-miterlimit:10;}
	.st39{fill:none;stroke:#5691CC;stroke-width:2;stroke-linecap:round;stroke-miterlimit:10;}
	.st40{fill:none;stroke:#5691CC;stroke-width:2;stroke-miterlimit:10;}
	.st41{fill:none;stroke:#5691CC;stroke-width:1.5;stroke-miterlimit:10;}
	.st42{fill:none;stroke:#5691CC;stroke-width:1.5;stroke-linecap:round;stroke-miterlimit:10;}
	.st43{fill:none;stroke:#5691CC;stroke-width:0.75;stroke-linecap:round;stroke-linejoin:round;stroke-miterlimit:10;}
	.st44{fill:#5691CC;}
	.st45{opacity:0.5;fill:#333333;}
	.st46{opacity:0.5;fill:#333333;stroke:#333333;stroke-miterlimit:10;}
	.st47{fill:#FFFFFF;stroke:#333333;stroke-width:1.5;stroke-miterlimit:10;}
	.st48{fill:none;stroke:#333333;stroke-width:2;stroke-linecap:round;stroke-miterlimit:10;stroke-dasharray:4.0032,4.0032;}
	.st49{fill:none;stroke:#333333;stroke-width:2;stroke-linejoin:round;stroke-miterlimit:10;}
	.st50{fill:none;stroke:#333333;stroke-width:1.5;stroke-linejoin:round;stroke-miterlimit:10;}
	.st51{fill:none;stroke:#5791CC;stroke-width:3;stroke-miterlimit:10;}
	.st52{fill:none;stroke:#5791CC;stroke-width:1.5;stroke-linejoin:round;stroke-miterlimit:10;}
	.st53{opacity:0.3;fill:#9F2F50;}
	.st54{fill:none;stroke:#9F2F50;stroke-width:2;stroke-miterlimit:10;}
	.st55{fill:none;stroke:#9F2F50;stroke-width:1.5;stroke-miterlimit:10;}
	.st56{fill:none;stroke:#9F2F50;stroke-width:2;stroke-linecap:round;stroke-miterlimit:10;}
	.st57{opacity:0.5;fill:#A02F50;}
	.st58{fill:none;stroke:#A02F50;stroke-width:2;stroke-miterlimit:10;}
	.st59{fill:none;stroke:#A02F50;stroke-width:1.5;stroke-miterlimit:10;}
	.st60{fill:none;stroke:#A02F50;stroke-width:0.75;stroke-linecap:round;stroke-linejoin:round;stroke-miterlimit:10;}
	.st61{fill:#A02F50;}
	.st62{fill:#9F2F50;}
</style>
<g>
	<polyline class="st1" points="26.8,44.6 16.7,34.5 12.9,38.2 31.5,56.8 35.3,53.1 26.8,44.6 	"/>
	<path class="st12" d="M34.4,54.2L18.7,67.4c-0.5,0.4-1.3,0.4-1.8-0.1L2.4,52.7c-0.5-0.5-0.5-1.2-0.1-1.8l13.2-15.7
		c0.5-0.6,1.4-0.6,1.9-0.1l17.1,17.1C35.1,52.9,35,53.7,34.4,54.2z"/>
	<path class="st12" d="M12.8,67L2.7,56.9c-0.5-0.5-0.5-1.3,0-1.8l1-1L15.7,66l-1,1C14.1,67.5,13.3,67.5,12.8,67z"/>
	<line class="st16" x1="13" y1="38.2" x2="31.5" y2="56.7"/>
	<path class="st12" d="M29.1,40.7L29.1,40.7c0.6,0.6,0.6,1.5,0,2.1l-2,2L25,42.8l2-2C27.6,40.1,28.5,40.1,29.1,40.7z"/>
	<path class="st32" d="M29.9,47.7l4.8-4.8c0.6-0.6,1.5-0.6,2.1,0h0c0.6,0.6,0.6,1.5,0,2.1L32,49.8"/>
	<path class="st12" d="M5.4,64.3L5.4,64.3c-0.6-0.6-0.6-1.5,0-2.1l1.3-1.3L8.8,63l-1.3,1.3C7,64.9,6,64.9,5.4,64.3z"/>
	<path class="st32" d="M20,37.7l4.8-4.8c0.6-0.6,1.5-0.6,2.1,0l0,0c0.6,0.6,0.6,1.5,0,2.1l-4.8,4.8"/>
</g>
<g>
	<polyline class="st1" points="43,24.6 45.9,23.8 45.5,27.1 53.4,35 57.2,31.2 38.6,12.6 34.8,16.4 43.3,24.9 	"/>
	<path class="st12" d="M35.6,15.2L51.3,2.1c0.5-0.4,1.3-0.4,1.8,0.1l14.6,14.6c0.5,0.5,0.5,1.2,0.1,1.8L54.6,34.2
		c-0.5,0.6-1.4,0.6-1.9,0.1L35.5,17.2C35,16.6,35,15.7,35.6,15.2z"/>
	<path class="st12" d="M57.3,2.4l10.1,10.1c0.5,0.5,0.5,1.3,0,1.8l-1,1L54.4,3.5l1-1C55.9,1.9,56.8,1.9,57.3,2.4z"/>
	<line class="st16" x1="57" y1="31.2" x2="38.6" y2="12.8"/>
	<path class="st13" d="M45.9,23.8L45.9,23.8c0.6,0.6,0.6,1.5,0,2.1l-0.8,0.8L43,24.6l0.8-0.8C44.4,23.2,45.3,23.2,45.9,23.8z"/>
	<path class="st12" d="M64.6,5.2L64.6,5.2c0.6,0.6,0.6,1.5,0,2.1l-1.3,1.3l-2.1-2.1l1.3-1.3C63.1,4.6,64,4.6,64.6,5.2z"/>
	<path class="st13" d="M54.7,25L54.7,25c0.6,0.6,0.6,1.5,0,2.1L53.8,28l-2.1-2.1l0.9-0.9C53.2,24.4,54.1,24.4,54.7,25z"/>
	<path class="st13" d="M44.8,15.1L44.8,15.1c0.6,0.6,0.6,1.5,0,2.1l-0.9,0.9L41.8,16l0.9-0.9C43.3,14.5,44.2,14.5,44.8,15.1z"/>
</g>
</svg>
