<?xml version="1.0" encoding="utf-8"?>
<!-- Generator: Adobe Illustrator 19.2.1, SVG Export Plug-In . SVG Version: 6.00 Build 0)  -->
<svg version="1.1" id="Layer_1" xmlns="http://www.w3.org/2000/svg" xmlns:xlink="http://www.w3.org/1999/xlink" x="0px" y="0px"
	 viewBox="0 0 70 70" style="enable-background:new 0 0 70 70;" xml:space="preserve">
<style type="text/css">
	.st0{opacity:0.5;fill:#9F2F50;}
	.st1{opacity:0.5;fill:#9DC3E9;}
	.st2{display:none;}
	.st3{display:inline;fill:#9DC3E9;}
	.st4{fill:none;stroke:#333333;stroke-width:0.75;stroke-miterlimit:10;}
	.st5{fill:none;stroke:#333333;stroke-width:1.2;stroke-miterlimit:10;}
	.st6{fill:none;stroke:#333333;stroke-miterlimit:10;}
	.st7{fill:#FFFFFF;stroke:#333333;stroke-width:1.2;stroke-miterlimit:10;}
	.st8{fill:#FFFFFF;stroke:#333333;stroke-width:0.75;stroke-miterlimit:10;}
	.st9{fill:#333333;}
	.st10{fill:none;stroke:#333333;stroke-width:0.75;stroke-linecap:round;stroke-miterlimit:10;}
	.st11{fill:#FFFFFF;stroke:#5991CC;stroke-width:1.5;stroke-miterlimit:10;}
	.st12{fill:none;stroke:#5991CC;stroke-width:2;stroke-miterlimit:10;}
	.st13{fill:none;stroke:#5991CC;stroke-width:1.5;stroke-miterlimit:10;}
	.st14{fill:#5991CC;}
	.st15{fill:none;stroke:#5991CC;stroke-miterlimit:10;}
	.st16{fill:none;stroke:#5991CC;stroke-width:1.5;stroke-linecap:round;stroke-miterlimit:10;}
	.st17{fill:none;stroke:#5891CC;stroke-width:2;stroke-miterlimit:10;}
	.st18{fill:none;stroke:#5891CC;stroke-width:1.5;stroke-miterlimit:10;}
	.st19{fill:#5891CC;}
	.st20{fill:none;stroke:#5891CC;stroke-width:1.5;stroke-linecap:round;stroke-miterlimit:10;}
	.st21{fill:none;stroke:#333333;stroke-width:1.2;stroke-linecap:round;stroke-miterlimit:10;}
	.st22{fill:none;stroke:#333333;stroke-width:1.2;stroke-linecap:round;stroke-miterlimit:10;stroke-dasharray:2.0016,2.0016;}
	.st23{fill:none;stroke:#5791CC;stroke-width:2;stroke-miterlimit:10;}
	.st24{fill:none;stroke:#5791CC;stroke-width:1.5;stroke-miterlimit:10;}
	.st25{fill:none;stroke:#5791CC;stroke-width:2;stroke-linecap:round;stroke-miterlimit:10;}
	.st26{fill:none;stroke:#5791CC;stroke-width:2;stroke-linecap:round;stroke-miterlimit:10;stroke-dasharray:4.0032,4.0032;}
	.st27{fill:none;stroke:#5991CC;stroke-width:0.75;stroke-linejoin:round;stroke-miterlimit:10;}
	.st28{fill:none;stroke:#5991CC;stroke-width:2;stroke-linejoin:round;stroke-miterlimit:10;}
	.st29{fill:none;stroke:#333333;stroke-width:2;stroke-miterlimit:10;}
	.st30{fill:none;stroke:#333333;stroke-width:1.5;stroke-miterlimit:10;}
	.st31{fill:none;stroke:#333333;stroke-width:0.75;stroke-linejoin:round;stroke-miterlimit:10;}
	.st32{fill:none;stroke:#5991CC;stroke-width:2;stroke-linecap:round;stroke-miterlimit:10;}
	.st33{fill:none;stroke:#333333;stroke-width:1.5;stroke-linecap:round;stroke-miterlimit:10;}
	.st34{fill:none;stroke:#5891CC;stroke-width:0.75;stroke-linejoin:round;stroke-miterlimit:10;}
	.st35{fill:none;stroke:#5791CC;stroke-width:0.75;stroke-linejoin:round;stroke-miterlimit:10;}
	.st36{fill:none;stroke:#5791CC;stroke-width:1.5;stroke-linecap:round;stroke-miterlimit:10;}
	.st37{fill:none;stroke:#333333;stroke-width:2;stroke-linecap:round;stroke-miterlimit:10;}
	.st38{fill:none;stroke:#333333;stroke-width:0.75;stroke-linecap:round;stroke-linejoin:round;stroke-miterlimit:10;}
	.st39{fill:none;stroke:#5691CC;stroke-width:2;stroke-linecap:round;stroke-miterlimit:10;}
	.st40{fill:none;stroke:#5691CC;stroke-width:2;stroke-miterlimit:10;}
	.st41{fill:none;stroke:#5691CC;stroke-width:1.5;stroke-miterlimit:10;}
	.st42{fill:none;stroke:#5691CC;stroke-width:1.5;stroke-linecap:round;stroke-miterlimit:10;}
	.st43{fill:none;stroke:#5691CC;stroke-width:0.75;stroke-linecap:round;stroke-linejoin:round;stroke-miterlimit:10;}
	.st44{fill:#5691CC;}
	.st45{opacity:0.5;fill:#333333;}
	.st46{opacity:0.5;fill:#333333;stroke:#333333;stroke-miterlimit:10;}
	.st47{fill:#FFFFFF;stroke:#333333;stroke-width:1.5;stroke-miterlimit:10;}
	.st48{fill:none;stroke:#333333;stroke-width:2;stroke-linecap:round;stroke-miterlimit:10;stroke-dasharray:4.0032,4.0032;}
	.st49{fill:none;stroke:#333333;stroke-width:2;stroke-linejoin:round;stroke-miterlimit:10;}
	.st50{fill:none;stroke:#333333;stroke-width:1.5;stroke-linejoin:round;stroke-miterlimit:10;}
	.st51{fill:none;stroke:#5791CC;stroke-width:3;stroke-miterlimit:10;}
	.st52{fill:none;stroke:#5791CC;stroke-width:1.5;stroke-linejoin:round;stroke-miterlimit:10;}
	.st53{opacity:0.3;fill:#9F2F50;}
	.st54{fill:none;stroke:#9F2F50;stroke-width:2;stroke-miterlimit:10;}
	.st55{fill:none;stroke:#9F2F50;stroke-width:1.5;stroke-miterlimit:10;}
	.st56{fill:none;stroke:#9F2F50;stroke-width:2;stroke-linecap:round;stroke-miterlimit:10;}
	.st57{opacity:0.5;fill:#A02F50;}
	.st58{fill:none;stroke:#A02F50;stroke-width:2;stroke-miterlimit:10;}
	.st59{fill:none;stroke:#A02F50;stroke-width:1.5;stroke-miterlimit:10;}
	.st60{fill:none;stroke:#A02F50;stroke-width:0.75;stroke-linecap:round;stroke-linejoin:round;stroke-miterlimit:10;}
	.st61{fill:#A02F50;}
	.st62{fill:#9F2F50;}
</style>
<path class="st1" d="M24.2,11.2l9.2-8.6c0,0,1.7-1.9,4.3,0c2.7,1.9,9.1,9.2,9.1,9.2L24.2,11.2z"/>
<polygon class="st1" points="53.1,35 53.1,18.2 62.9,27.3 "/>
<polygon class="st1" points="17.3,35 17.3,18.2 7.5,27.3 "/>
<path class="st12" d="M46.8,11.7l-9.5-9.1c-1.1-1-2.8-1-3.9,0l-9.8,9.2"/>
<path class="st12" d="M17.3,17.6l-8.9,8.3c-0.6,0.5-0.9,1.3-0.9,2.1V64c0,1.6,1.3,2.8,2.8,2.8h49.3c1.6,0,2.8-1.3,2.8-2.8V28
	c0-0.8-0.3-1.5-0.9-2l-8.5-8.2"/>
<path class="st13" d="M8.4,66.1l23.3-20.4c1.9-1.6,4.7-1.6,6.6,0l23.3,20.4"/>
<line class="st13" x1="7.5" y1="28" x2="31.3" y2="46"/>
<line class="st13" x1="62.5" y1="27.8" x2="38.8" y2="45.7"/>
<path class="st12" d="M53.1,34.9V13c0-0.7-0.6-1.3-1.3-1.3H18.6c-0.7,0-1.3,0.6-1.3,1.3v22.5"/>
<path class="st27" d="M29,19.8L29,19.8c0-1.1-0.9-2-2-2l0,0c1.1,0,2-1.2,2-2.3h0c0,1.1,0.9,2.3,2,2.3l0,0C29.9,17.8,29,18.7,29,19.8
	z"/>
<path class="st27" d="M23.4,22.9L23.4,22.9c0-1.1-0.9-2-2-2l0,0c1.1,0,2-1.2,2-2.3h0c0,1.1,0.9,2.3,2,2.3l0,0
	C24.3,20.9,23.4,21.8,23.4,22.9z"/>
</svg>
