<?xml version="1.0" encoding="utf-8"?>
<!-- Generator: Adobe Illustrator 19.2.1, SVG Export Plug-In . SVG Version: 6.00 Build 0)  -->
<svg version="1.1" id="Layer_1" xmlns="http://www.w3.org/2000/svg" xmlns:xlink="http://www.w3.org/1999/xlink" x="0px" y="0px"
	 viewBox="0 0 70 70" style="enable-background:new 0 0 70 70;" xml:space="preserve">
<style type="text/css">
	.st0{opacity:0.5;fill:#9F2F50;}
	.st1{opacity:0.5;fill:#9DC3E9;}
	.st2{display:none;}
	.st3{display:inline;fill:#9DC3E9;}
	.st4{fill:none;stroke:#333333;stroke-width:0.75;stroke-miterlimit:10;}
	.st5{fill:none;stroke:#333333;stroke-width:1.2;stroke-miterlimit:10;}
	.st6{fill:none;stroke:#333333;stroke-miterlimit:10;}
	.st7{fill:#FFFFFF;stroke:#333333;stroke-width:1.2;stroke-miterlimit:10;}
	.st8{fill:#FFFFFF;stroke:#333333;stroke-width:0.75;stroke-miterlimit:10;}
	.st9{fill:#333333;}
	.st10{fill:none;stroke:#333333;stroke-width:0.75;stroke-linecap:round;stroke-miterlimit:10;}
	.st11{fill:#FFFFFF;stroke:#5991CC;stroke-width:1.5;stroke-miterlimit:10;}
	.st12{fill:none;stroke:#5991CC;stroke-width:2;stroke-miterlimit:10;}
	.st13{fill:none;stroke:#5991CC;stroke-width:1.5;stroke-miterlimit:10;}
	.st14{fill:#5991CC;}
	.st15{fill:none;stroke:#5991CC;stroke-miterlimit:10;}
	.st16{fill:none;stroke:#5991CC;stroke-width:1.5;stroke-linecap:round;stroke-miterlimit:10;}
	.st17{fill:none;stroke:#5891CC;stroke-width:2;stroke-miterlimit:10;}
	.st18{fill:none;stroke:#5891CC;stroke-width:1.5;stroke-miterlimit:10;}
	.st19{fill:#5891CC;}
	.st20{fill:none;stroke:#5891CC;stroke-width:1.5;stroke-linecap:round;stroke-miterlimit:10;}
	.st21{fill:none;stroke:#333333;stroke-width:1.2;stroke-linecap:round;stroke-miterlimit:10;}
	.st22{fill:none;stroke:#333333;stroke-width:1.2;stroke-linecap:round;stroke-miterlimit:10;stroke-dasharray:2.0016,2.0016;}
	.st23{fill:none;stroke:#5791CC;stroke-width:2;stroke-miterlimit:10;}
	.st24{fill:none;stroke:#5791CC;stroke-width:1.5;stroke-miterlimit:10;}
	.st25{fill:none;stroke:#5791CC;stroke-width:2;stroke-linecap:round;stroke-miterlimit:10;}
	.st26{fill:none;stroke:#5791CC;stroke-width:2;stroke-linecap:round;stroke-miterlimit:10;stroke-dasharray:4.0032,4.0032;}
	.st27{fill:none;stroke:#5991CC;stroke-width:0.75;stroke-linejoin:round;stroke-miterlimit:10;}
	.st28{fill:none;stroke:#5991CC;stroke-width:2;stroke-linejoin:round;stroke-miterlimit:10;}
	.st29{fill:none;stroke:#333333;stroke-width:2;stroke-miterlimit:10;}
	.st30{fill:none;stroke:#333333;stroke-width:1.5;stroke-miterlimit:10;}
	.st31{fill:none;stroke:#333333;stroke-width:0.75;stroke-linejoin:round;stroke-miterlimit:10;}
	.st32{fill:none;stroke:#5991CC;stroke-width:2;stroke-linecap:round;stroke-miterlimit:10;}
	.st33{fill:none;stroke:#333333;stroke-width:1.5;stroke-linecap:round;stroke-miterlimit:10;}
	.st34{fill:none;stroke:#5891CC;stroke-width:0.75;stroke-linejoin:round;stroke-miterlimit:10;}
	.st35{fill:none;stroke:#5791CC;stroke-width:0.75;stroke-linejoin:round;stroke-miterlimit:10;}
	.st36{fill:none;stroke:#5791CC;stroke-width:1.5;stroke-linecap:round;stroke-miterlimit:10;}
	.st37{fill:none;stroke:#333333;stroke-width:2;stroke-linecap:round;stroke-miterlimit:10;}
	.st38{fill:none;stroke:#333333;stroke-width:0.75;stroke-linecap:round;stroke-linejoin:round;stroke-miterlimit:10;}
	.st39{fill:none;stroke:#5691CC;stroke-width:2;stroke-linecap:round;stroke-miterlimit:10;}
	.st40{fill:none;stroke:#5691CC;stroke-width:2;stroke-miterlimit:10;}
	.st41{fill:none;stroke:#5691CC;stroke-width:1.5;stroke-miterlimit:10;}
	.st42{fill:none;stroke:#5691CC;stroke-width:1.5;stroke-linecap:round;stroke-miterlimit:10;}
	.st43{fill:none;stroke:#5691CC;stroke-width:0.75;stroke-linecap:round;stroke-linejoin:round;stroke-miterlimit:10;}
	.st44{fill:#5691CC;}
	.st45{opacity:0.5;fill:#333333;}
	.st46{opacity:0.5;fill:#333333;stroke:#333333;stroke-miterlimit:10;}
	.st47{fill:#FFFFFF;stroke:#333333;stroke-width:1.5;stroke-miterlimit:10;}
	.st48{fill:none;stroke:#333333;stroke-width:2;stroke-linecap:round;stroke-miterlimit:10;stroke-dasharray:4.0032,4.0032;}
	.st49{fill:none;stroke:#333333;stroke-width:2;stroke-linejoin:round;stroke-miterlimit:10;}
	.st50{fill:none;stroke:#333333;stroke-width:1.5;stroke-linejoin:round;stroke-miterlimit:10;}
	.st51{fill:none;stroke:#5791CC;stroke-width:3;stroke-miterlimit:10;}
	.st52{fill:none;stroke:#5791CC;stroke-width:1.5;stroke-linejoin:round;stroke-miterlimit:10;}
	.st53{opacity:0.3;fill:#9F2F50;}
	.st54{fill:none;stroke:#9F2F50;stroke-width:2;stroke-miterlimit:10;}
	.st55{fill:none;stroke:#9F2F50;stroke-width:1.5;stroke-miterlimit:10;}
	.st56{fill:none;stroke:#9F2F50;stroke-width:2;stroke-linecap:round;stroke-miterlimit:10;}
	.st57{opacity:0.5;fill:#A02F50;}
	.st58{fill:none;stroke:#A02F50;stroke-width:2;stroke-miterlimit:10;}
	.st59{fill:none;stroke:#A02F50;stroke-width:1.5;stroke-miterlimit:10;}
	.st60{fill:none;stroke:#A02F50;stroke-width:0.75;stroke-linecap:round;stroke-linejoin:round;stroke-miterlimit:10;}
	.st61{fill:#A02F50;}
	.st62{fill:#9F2F50;}
</style>
<ellipse transform="matrix(0.7962 -0.605 0.605 0.7962 -10.5147 19.6404)" class="st1" cx="23.9" cy="25.4" rx="1.5" ry="1.5"/>
<ellipse transform="matrix(0.7962 -0.605 0.605 0.7962 -7.8929 26.8227)" class="st1" cx="35.9" cy="25.1" rx="1.5" ry="1.5"/>
<path class="st1" d="M26.9,48.9v7c0,1.7,1.4,3.2,3.1,3.2h27.2c0.1,0,0.1,0,0.2,0.1l7.3,8.4c0.1,0.1,0.3,0,0.3-0.2l-0.1-7.8
	c0-0.2,0.1-0.4,0.3-0.5c1.5-0.2,2.7-1.5,2.7-3.1v-5.5v-7.6l0,0l0,0V26.2c0-1.7-1.4-3.2-3.1-3.2h-6.9l0,21.8c0,2.2-1.8,4-4,4
	L26.9,48.9z"/>
<path class="st28" d="M2.2,27.5L2.2,27.5L2.2,27.5v-22c0-2.3,1.9-4.2,4.2-4.2h47.3c2.3,0,4.2,1.9,4.2,4.2v39.5
	c0,2.3-1.9,4.2-4.2,4.2h-37c-0.1,0-0.2,0-0.3,0.1l-9.9,7.1c-0.2,0.1-0.4,0-0.4-0.2l0.1-6.4c0.1-0.3-0.1-0.6-0.4-0.6
	c-2.1-0.3-3.7-2-3.7-4.2v-7.3V27.5z"/>
<path class="st28" d="M26.9,49.1v6.8c0,1.7,1.4,3.2,3.1,3.2h27.2c0.1,0,0.1,0,0.2,0.1l7.3,8.4c0.1,0.1,0.3,0,0.3-0.2l-0.1-7.8
	c0-0.2,0.1-0.4,0.3-0.5c1.5-0.2,2.7-1.5,2.7-3.1v-5.5v-7.6l0,0l0,0V26.2c0-1.7-1.4-3.2-3.1-3.2h-6.9l0,22c0,2.2-1.8,4-4,4L26.9,49.1
	z"/>
<ellipse transform="matrix(0.7962 -0.605 0.605 0.7962 -9.1228 23.1748)" class="st1" cx="29.8" cy="25.1" rx="1.5" ry="1.5"/>
<circle class="st16" cx="29.9" cy="25.1" r="1.5"/>
<circle class="st16" cx="35.9" cy="25.1" r="1.5"/>
<circle class="st16" cx="23.9" cy="25.1" r="1.5"/>
</svg>
